<!DOCTYPE svg PUBLIC "-//W3C//DTD SVG 1.1//EN" "http://www.w3.org/Graphics/SVG/1.1/DTD/svg11.dtd">
<!-- Uploaded to: SVG Repo, www.svgrepo.com, Transformed by: SVG Repo Mixer Tools -->
<svg fill="#fe5720" width="800px" height="800px" viewBox="0 -8 528 528" xmlns="http://www.w3.org/2000/svg" stroke="#fe5720">
<g id="SVGRepo_bgCarrier" stroke-width="0"/>
<g id="SVGRepo_tracerCarrier" stroke-linecap="round" stroke-linejoin="round"/>
<g id="SVGRepo_iconCarrier">
<title>warn</title>
<path d="M264 56Q318 56 364 83 410 110 437 156 464 202 464 256 464 310 437 356 410 402 364 429 318 456 264 456 210 456 164 429 118 402 91 356 64 310 64 256 64 202 91 156 118 110 164 83 210 56 264 56ZM232 144L232 272 296 272 296 144 232 144ZM232 304L232 368 296 368 296 304 232 304Z"/>
</g>
</svg>